<svg xmlns="http://www.w3.org/2000/svg" viewBox="0 0 100 100">
  <defs>
    <linearGradient id="grad" x1="0%" y1="0%" x2="100%" y2="100%">
      <stop offset="0%" style="stop-color:#2563eb"/>
      <stop offset="100%" style="stop-color:#1e40af"/>
    </linearGradient>
  </defs>
  <!-- Hexagon shape -->
  <polygon points="50,5 93,27.5 93,72.5 50,95 7,72.5 7,27.5" fill="url(#grad)"/>
  <!-- Letter P -->
  <path d="M35,30 L35,70 L45,70 L45,55 L55,55 C65,55 70,48 70,42.5 C70,37 65,30 55,30 L35,30 Z M45,38 L53,38 C58,38 60,40 60,42.5 C60,45 58,47 53,47 L45,47 L45,38 Z" fill="white"/>
</svg>
